<?xml version="1.0" encoding="utf-8"?>
<!-- Generator: Adobe Illustrator 23.0.1, SVG Export Plug-In . SVG Version: 6.00 Build 0)  -->
<svg version="1.0" id="Layer_1" xmlns="http://www.w3.org/2000/svg" xmlns:xlink="http://www.w3.org/1999/xlink" x="0px" y="0px"
	 viewBox="0 0 180.8 28.4" style="enable-background:new 0 0 180.8 28.4;" xml:space="preserve">
<style type="text/css">
	.st0{fill:#EA4C36;}
	.st1{fill:#898A8D;}
	.st2{fill:#00609C;}
	.st3{fill:url(#SVGID_1_);}
</style>
<g>
	<path class="st0" d="M42.4,18.8c1.7,0,3-0.6,4.1-1.9l2.1,2.2c-1.7,1.9-3.7,2.9-6,2.9c-2.3,0-4.2-0.7-5.7-2.2
		c-1.5-1.5-2.2-3.3-2.2-5.5s0.7-4.1,2.3-5.6c1.5-1.5,3.4-2.2,5.6-2.2c2.5,0,4.5,0.9,6.2,2.8l-2.1,2.4c-1.1-1.3-2.4-2-4-2
		c-1.3,0-2.3,0.4-3.2,1.2s-1.3,1.9-1.3,3.3s0.4,2.5,1.3,3.4C40.2,18.4,41.2,18.8,42.4,18.8"/>
	<path class="st0" d="M59.4,13.5c0.4-0.4,0.6-1,0.6-1.8s-0.2-1.4-0.6-1.7c-0.4-0.3-1.2-0.5-2.2-0.5h-2.5v4.4h2.4
		C58.2,14.1,59,13.9,59.4,13.5 M63.4,11.7c0,2.4-1,4-2.9,4.7l3.8,5.4h-4.1L56.9,17h-2.3v4.8h-3.3v-15H57c2.3,0,4,0.4,5,1.2
		C62.9,8.7,63.4,10,63.4,11.7"/>
	<polygon class="st0" points="77.1,6.7 77.1,9.7 69.6,9.7 69.6,12.8 76.3,12.8 76.3,15.7 69.6,15.7 69.6,18.8 77.3,18.8 77.3,21.8 
		66.3,21.8 66.3,6.7 	"/>
	<path class="st0" d="M88.8,17.6c0.8-0.8,1.2-1.9,1.2-3.4c0-1.5-0.4-2.6-1.2-3.4C87.9,10,86.7,9.7,85,9.7h-1.9v9.1h2.1
		C86.8,18.8,87.9,18.4,88.8,17.6 M91.2,8.7c1.4,1.3,2.1,3.1,2.1,5.4c0,2.3-0.7,4.2-2.1,5.5s-3.5,2-6.4,2h-5.1v-15h5.3
		C87.7,6.7,89.8,7.4,91.2,8.7"/>
	<path class="st0" d="M107.8,14.2c0-1.3-0.4-2.5-1.3-3.4c-0.9-0.9-1.9-1.4-3.2-1.4c-1.2,0-2.3,0.5-3.2,1.4c-0.8,0.9-1.3,2.1-1.3,3.4
		s0.4,2.5,1.3,3.4c0.9,0.9,1.9,1.4,3.2,1.4c1.3,0,2.3-0.5,3.2-1.4C107.3,16.6,107.8,15.5,107.8,14.2 M108.9,19.7
		c-1.5,1.5-3.4,2.2-5.6,2.2c-2.2,0-4.1-0.7-5.6-2.2c-1.5-1.5-2.3-3.3-2.3-5.5s0.8-4.1,2.3-5.5c1.5-1.5,3.4-2.2,5.6-2.2
		c2.2,0,4.1,0.7,5.6,2.2c1.5,1.5,2.3,3.3,2.3,5.5C111.2,16.4,110.4,18.2,108.9,19.7"/>
	<path class="st0" d="M123,18.9h2.3c1,0,1.7-0.1,2.1-0.4c0.5-0.2,0.7-0.7,0.7-1.4s-0.3-1.2-0.8-1.4c-0.5-0.2-1.3-0.3-2.4-0.3h-2
		L123,18.9L123,18.9z M123,12.8h1.6c0.9,0,1.6-0.1,2.1-0.3c0.5-0.2,0.7-0.6,0.7-1.3c0-0.7-0.2-1.1-0.6-1.3c-0.4-0.2-1.1-0.3-2.1-0.3
		H123V12.8z M126.2,21.8h-6.6v-15h5.8c1,0,1.9,0.1,2.6,0.4c0.7,0.3,1.3,0.6,1.7,1c0.7,0.8,1,1.7,1,2.6c0,1.2-0.4,2-1.1,2.6
		c-0.3,0.2-0.5,0.3-0.6,0.4c-0.1,0-0.3,0.1-0.6,0.2c0.9,0.2,1.7,0.6,2.2,1.3c0.6,0.6,0.8,1.4,0.8,2.4c0,1-0.4,2-1.1,2.8
		C129.7,21.3,128.3,21.8,126.2,21.8"/>
	<path class="st0" d="M140.5,11.2l-1.9,4.3h3.8L140.5,11.2z M145,21.8l-1.4-3.2h-6.3l-1.4,3.2h-3.6l6.5-15h3.2l6.5,15H145z"/>
	<polygon class="st0" points="160.8,6.7 164.1,6.7 164.1,21.8 160.8,21.8 153.6,12.4 153.6,21.8 150.3,21.8 150.3,6.7 153.4,6.7 
		160.8,16.4 	"/>
	<polygon class="st0" points="180.1,6.7 175.9,6.7 170.9,12.9 170.9,6.7 167.6,6.7 167.6,21.8 170.9,21.8 170.9,15.3 176.5,21.8 
		180.8,21.8 174,14 	"/>
</g>
<g>
	<path class="st1" d="M26.8,24.4l-1.2-0.6c-0.3-0.1-0.5-0.3-0.7-0.5c2.2-2.6,3.4-5.8,3.4-9.2C28.2,6.4,21.9,0,14.1,0
		C12.3,0,10.6,0.3,9,0.9v2.3v0.3c1.6-0.7,3.3-1.1,5.1-1.1c6.5,0,11.8,5.3,11.8,11.8c0,2.8-1,5.4-2.7,7.6c-0.2-0.3-0.3-0.5-0.5-0.8
		l-0.6-1.2c-0.3-0.6-1.3-0.4-1.3,0.3v5c0,0.4,0.3,0.7,0.7,0.7h5C27.2,25.7,27.5,24.8,26.8,24.4z"/>
	<path class="st2" d="M14.1,26C7.6,26,2.3,20.7,2.3,14.2c0-0.3,0-0.5,0-0.8c0-0.1,0-0.1,0-0.2c0-0.2,0-0.4,0.1-0.6
		c0-0.1,0-0.1,0-0.2C2.7,10.9,3.2,9.4,4,8.1c0,0,0,0,0,0c0.3-0.5,0.6-1,1-1.5c0.2,0.2,0.3,0.5,0.5,0.7l0.6,1.2
		C6.5,9.2,7.4,9,7.4,8.3v-5C7.4,2.9,7.1,2.6,6.7,2.6h-5c-0.7,0-0.9,1-0.3,1.3l1.2,0.6C2.9,4.6,3.1,4.8,3.4,5c-0.8,0.9-1.5,2-2,3.1
		c0,0,0,0,0,0C1.1,8.7,0.8,9.3,0.6,9.9c0,0.1,0,0.2-0.1,0.2c-0.1,0.3-0.1,0.5-0.2,0.7c0,0.1,0,0.1,0,0.2c-0.1,0.3-0.1,0.6-0.2,0.9
		c0,0.1,0,0.2,0,0.2c0,0.3-0.1,0.5-0.1,0.7c0,0.1,0,0.2,0,0.3c0,0.3,0,0.6,0,1C0,22,6.4,28.4,14.2,28.4c1.8,0,3.5-0.3,5.1-0.9v-2.3
		v-0.2C17.6,25.5,15.9,26,14.1,26z"/>
	<radialGradient id="SVGID_1_" cx="10.9325" cy="10.6981" r="13.9319" gradientUnits="userSpaceOnUse">
		<stop  offset="0" style="stop-color:#B6D1E2"/>
		<stop  offset="0.6864" style="stop-color:#00609C"/>
	</radialGradient>
	<path class="st3" d="M14.1,4.7c-1.9,0-3.7,0.6-5.1,1.5v2c0,1.2-1,2.2-2.2,2.2c-0.4,0-0.8-0.1-1.2-0.4c-0.6,1.2-0.9,2.6-0.9,4.1
		c0,5.2,4.2,9.4,9.4,9.4c1.9,0,3.7-0.6,5.2-1.6v-2c0-0.6,0.3-1.2,0.7-1.6c0.4-0.4,0.9-0.6,1.5-0.6c0.4,0,0.8,0.1,1.1,0.3
		c0.6-1.2,0.9-2.6,0.9-4C23.5,9,19.3,4.7,14.1,4.7z"/>
</g>
</svg>
