<?xml version="1.0"?>
<svg xmlns="http://www.w3.org/2000/svg" id="bold" enable-background="new 0 0 24 24" height="512px" viewBox="0 0 24 24" width="512px"><g><path d="m8.5 21c-.036 0-.072-.004-.107-.012-.084-.018-8.393-1.941-8.393-11.059v-6.429c0-.208.129-.395.324-.468l8-3c.113-.042.238-.042.352 0l8 3c.195.073.324.26.324.468v6.429c0 9.118-8.309 11.042-8.393 11.06-.035.007-.071.011-.107.011z" data-original="#000000" class="active-path" data-old_color="#000000" fill="#66A0CF"/><path d="m20 19c-1.103 0-2-.897-2-2s.897-2 2-2 2 .897 2 2-.897 2-2 2z" data-original="#000000" class="active-path" data-old_color="#000000" fill="#66A0CF"/><path d="m23.25 24h-6.5c-.414 0-.75-.336-.75-.75v-.5c0-1.517 1.233-2.75 2.75-2.75h2.5c1.517 0 2.75 1.233 2.75 2.75v.5c0 .414-.336.75-.75.75z" data-original="#000000" class="active-path" data-old_color="#000000" fill="#66A0CF"/></g> </svg>
