<svg id="_1_1_" xmlns="http://www.w3.org/2000/svg" width="16" height="15.996" viewBox="0 0 16 15.996">
  <path id="Path_89" data-name="Path 89" d="M9.2,15.8h-2.4a.6.6,0,0,1-.593-.533l-.179-1.674a5.74,5.74,0,0,1-.728-.3L3.985,14.344a.6.6,0,0,1-.8-.044l-1.7-1.7a.6.6,0,0,1-.044-.8L2.506,10.5a6.514,6.514,0,0,1-.3-.728L.525,9.592A.588.588,0,0,1,0,9V6.6a.6.6,0,0,1,.533-.593l1.674-.179a6.389,6.389,0,0,1,.3-.728L1.452,3.793A.6.6,0,0,1,1.5,3l1.7-1.7a.6.6,0,0,1,.8-.044L5.3,2.314a6.514,6.514,0,0,1,.728-.3L6.2.337A.6.6,0,0,1,6.8-.2H9.2A.6.6,0,0,1,9.8.333l.179,1.674a5.74,5.74,0,0,1,.728.3l1.308-1.058a.6.6,0,0,1,.8.044l1.7,1.7a.6.6,0,0,1,.044.8L13.49,5.1a6.513,6.513,0,0,1,.3.728L15.467,6A.6.6,0,0,1,16,6.6V9a.6.6,0,0,1-.533.593l-1.674.179a6.388,6.388,0,0,1-.3.728l1.058,1.308a.6.6,0,0,1-.044.8l-1.7,1.7a.6.6,0,0,1-.8.044L10.7,13.286a6.513,6.513,0,0,1-.728.3L9.8,15.263A.609.609,0,0,1,9.2,15.8ZM7.33,14.6H8.658l.163-1.535a.6.6,0,0,1,.441-.513,4.879,4.879,0,0,0,1.2-.5.6.6,0,0,1,.676.052l1.2.97.939-.939-.974-1.2a.6.6,0,0,1-.052-.676,4.852,4.852,0,0,0,.5-1.2.6.6,0,0,1,.513-.441l1.531-.163V7.138l-1.531-.163a.6.6,0,0,1-.513-.441,4.79,4.79,0,0,0-.5-1.2.6.6,0,0,1,.052-.676l.97-1.2-.939-.939-1.2.97a.6.6,0,0,1-.676.052,4.852,4.852,0,0,0-1.2-.5.6.6,0,0,1-.441-.513L8.658,1H7.33L7.167,2.536a.6.6,0,0,1-.441.513,4.852,4.852,0,0,0-1.2.5.6.6,0,0,1-.676-.052l-1.2-.97-.939.939.97,1.2a.6.6,0,0,1,.052.676,4.852,4.852,0,0,0-.5,1.2.6.6,0,0,1-.513.441l-1.535.163V8.47l1.535.163a.6.6,0,0,1,.513.441,4.852,4.852,0,0,0,.5,1.2.6.6,0,0,1-.052.676l-.97,1.2.939.939,1.2-.97a.6.6,0,0,1,.676-.052,4.852,4.852,0,0,0,1.2.5.6.6,0,0,1,.441.513ZM15.391,9Z" transform="translate(0 0.2)" fill="#ea4c36"/>
  <g id="Group_852" data-name="Group 852">
    <path id="Path_90" data-name="Path 90" d="M113.235,116.87a3.635,3.635,0,1,1,3.635-3.635A3.634,3.634,0,0,1,113.235,116.87Zm0-6.077a2.442,2.442,0,1,0,2.442,2.442,2.442,2.442,0,0,0-2.442-2.442Z" transform="translate(-105.24 -105.234)" fill="#ea4c36"/>
  </g>
</svg>
