<?xml version="1.0" encoding="iso-8859-1"?>
<!-- Generator: Adobe Illustrator 19.0.0, SVG Export Plug-In . SVG Version: 6.00 Build 0)  -->
<svg version="1.1" id="Capa_1" xmlns="http://www.w3.org/2000/svg" xmlns:xlink="http://www.w3.org/1999/xlink" x="0px" y="0px"
	 viewBox="0 0 512 512" style="enable-background:new 0 0 512 512;" xml:space="preserve">
<g>
	<g>
		<g>
			<path d="M37.294,204.929c-3.313-1.909-7.396-1.898-10.668,0.031l-5.5,3.192c-20.168,11.766-27.127,37.905-15.48,58.255
				l17.085,29.883c1.917,3.38,5.5,5.372,9.251,5.372c0.917,0,1.833-0.115,2.75-0.355c4.667-1.252,7.917-5.486,7.917-10.326v-76.79
				C42.649,210.374,40.607,206.838,37.294,204.929z"/>
			<path d="M161.721,149.142h271.085c3.813,0,7.313-2.023,9.23-5.32c1.917-3.296,1.917-7.364,0.021-10.67l-51.921-90.808
				c-11.23-19.651-38.295-27.015-57.922-15.625L156.346,129.23c-4.167,2.43-6.188,7.354-4.917,12.016
				C152.679,145.908,156.908,149.142,161.721,149.142z"/>
			<path d="M469.333,170.667H106.667C83.146,170.667,64,189.802,64,213.333V448c0,23.531,19.146,42.667,42.667,42.667h362.667
				C492.854,490.667,512,471.531,512,448V213.333C512,189.802,492.854,170.667,469.333,170.667z M192.008,256.181
				c23.522,0,42.668,19.15,42.668,42.7s-19.147,42.7-42.668,42.7c-23.522,0-42.668-19.15-42.668-42.7
				S168.486,256.181,192.008,256.181z M277.345,406.296c0,11.405-9.563,20.683-21.334,20.683H128.005
				c-11.771,0-21.334-9.278-21.334-20.683v-4.879c0-14.198,8.271-27.01,21.605-33.432c14.917-7.172,38.064-15.731,63.732-15.731
				s48.815,8.559,63.732,15.731c13.334,6.422,21.605,19.234,21.605,33.432V406.296z M458.666,384H330.661
				c-5.896,0-10.667-4.771-10.667-10.667c0-5.896,4.771-10.667,10.667-10.667h128.005c5.896,0,10.667,4.771,10.667,10.667
				C469.333,379.229,464.562,384,458.666,384z M458.686,320H288.012c-5.896,0-10.667-4.771-10.667-10.667
				c0-5.896,4.771-10.667,10.667-10.667h170.674c5.896,0,10.667,4.771,10.667,10.667C469.353,315.229,464.582,320,458.686,320z"/>
		</g>
	</g>
</g>
<g>
</g>
<g>
</g>
<g>
</g>
<g>
</g>
<g>
</g>
<g>
</g>
<g>
</g>
<g>
</g>
<g>
</g>
<g>
</g>
<g>
</g>
<g>
</g>
<g>
</g>
<g>
</g>
<g>
</g>
</svg>
