<svg id="Group_84" data-name="Group 84" xmlns="http://www.w3.org/2000/svg" width="16" height="16.935" viewBox="0 0 16 16.935">
  <path id="Path_95" data-name="Path 95" d="M13.656,46.093a8.034,8.034,0,0,0-2.31-1.593v1.246A6.767,6.767,0,0,1,8,58.457,6.767,6.767,0,0,1,4.654,45.746V44.5a8.034,8.034,0,0,0-2.31,1.593,7.812,7.812,0,0,0,0,11.158,8.074,8.074,0,0,0,11.312,0,7.812,7.812,0,0,0,0-11.158Z" transform="translate(0 -42.629)" fill="#ea4c36"/>
  <rect id="Rectangle_260" data-name="Rectangle 260" width="2.355" height="5.888" transform="translate(6.822)" fill="#ea4c36"/>
</svg>
