<svg id="_1_1_" xmlns="http://www.w3.org/2000/svg" width="16" height="16" viewBox="0 0 16 16">
  <path id="Path_91" data-name="Path 91" d="M12.334,16a.61.61,0,0,1-.45-.2L8.732,12.2H2.567A2.574,2.574,0,0,1,0,9.624V2.567A2.568,2.568,0,0,1,2.567,0H13.433A2.568,2.568,0,0,1,16,2.567V9.624a2.568,2.568,0,0,1-2.567,2.567h-.5V15.4A.6.6,0,0,1,12.334,16ZM2.567,1.194A1.376,1.376,0,0,0,1.194,2.567V9.624A1.376,1.376,0,0,0,2.567,11H9a.61.61,0,0,1,.45.2l2.285,2.611V11.59a.6.6,0,0,1,.6-.6h1.1A1.376,1.376,0,0,0,14.806,9.62V2.567a1.373,1.373,0,0,0-1.373-1.373Z" fill="#ea4c36"/>
  <path id="Path_92" data-name="Path 92" d="M131,187.133a.6.6,0,0,1-.422-.175c-.012-.016-.028-.028-.04-.044l-.036-.048a.591.591,0,0,1-.032-.052c-.008-.016-.016-.036-.024-.052a.23.23,0,0,1-.02-.056c0-.02-.012-.04-.016-.056a.268.268,0,0,1-.008-.056c0-.02,0-.04,0-.06a.3.3,0,0,1,0-.06c0-.02,0-.04.008-.06a.227.227,0,0,1,.016-.056c.008-.016.012-.036.02-.056s.016-.036.024-.052a.363.363,0,0,1,.032-.052l.036-.048a.209.209,0,0,1,.04-.044.6.6,0,0,1,.482-.171c.02,0,.04,0,.06.008a.228.228,0,0,1,.056.016c.016.008.036.012.056.02s.036.016.052.024a.364.364,0,0,1,.052.032l.048.036a.209.209,0,0,1,.044.04c.012.016.028.028.04.044l.036.048a.591.591,0,0,1,.032.052c.008.016.016.036.024.052a.23.23,0,0,1,.02.056c0,.02.012.036.016.056a.307.307,0,0,1,.008.06c0,.02,0,.04,0,.06a.3.3,0,0,1,0,.06c0,.02,0,.04-.008.056a.294.294,0,0,1-.016.056c-.008.016-.012.036-.02.056s-.016.036-.024.052a.363.363,0,0,1-.032.052l-.036.048a.209.209,0,0,1-.04.044c-.016.012-.028.028-.044.04l-.048.036a.587.587,0,0,1-.052.032.554.554,0,0,1-.052.024.231.231,0,0,1-.056.02c-.02,0-.036.012-.056.016a.307.307,0,0,1-.06.008C131.041,187.137,131.021,187.133,131,187.133Z" transform="translate(-125.21 -178.536)" fill="#ea4c36"/>
  <path id="Path_93" data-name="Path 93" d="M241.9,187.026a.3.3,0,0,1-.06,0c-.02,0-.04,0-.06-.008a.228.228,0,0,1-.056-.016c-.016-.008-.036-.012-.056-.02s-.036-.016-.052-.024a.362.362,0,0,1-.052-.032l-.048-.036a.209.209,0,0,1-.044-.04c-.012-.016-.028-.028-.04-.044l-.036-.048a.589.589,0,0,1-.032-.052c-.008-.016-.016-.036-.024-.052a.23.23,0,0,1-.02-.056c0-.02-.012-.04-.016-.056a.269.269,0,0,1-.008-.056c0-.016,0-.04,0-.06a.3.3,0,0,1,0-.06c0-.02,0-.04.008-.056a.294.294,0,0,1,.016-.056c.008-.016.012-.036.02-.056s.016-.036.024-.052a.363.363,0,0,1,.032-.052l.036-.048a.209.209,0,0,1,.04-.044c.016-.012.028-.028.044-.04l.048-.036a.587.587,0,0,1,.052-.032l.052-.024a.313.313,0,0,1,.056-.02c.02,0,.04-.012.056-.016a.271.271,0,0,1,.06-.008.6.6,0,0,1,.119,0c.02,0,.04,0,.06.008a.229.229,0,0,1,.056.016c.016.008.036.012.056.02s.036.016.052.024a.364.364,0,0,1,.052.032l.048.036a.209.209,0,0,1,.044.04c.012.016.028.028.04.044l.036.048a.592.592,0,0,1,.032.052c.008.016.016.036.024.052s.012.036.02.056.012.04.016.056a.268.268,0,0,1,.008.056.6.6,0,0,1,0,.119.235.235,0,0,1-.008.056.294.294,0,0,1-.016.056.484.484,0,0,1-.02.056c-.008.02-.016.036-.024.052a.365.365,0,0,1-.032.052l-.036.048a.435.435,0,0,1-.04.044.4.4,0,0,1-.044.04l-.048.036a.591.591,0,0,1-.052.032l-.052.024a.312.312,0,0,1-.056.02c-.02,0-.04.012-.056.016a.271.271,0,0,1-.06.008C241.945,187.022,241.925,187.026,241.9,187.026Z" transform="translate(-231.696 -178.429)" fill="#ea4c36"/>
  <path id="Path_94" data-name="Path 94" d="M186.5,187.218a.3.3,0,0,1-.06,0,.307.307,0,0,1-.06-.008.292.292,0,0,1-.056-.016l-.056-.02c-.02-.008-.036-.016-.052-.024a.57.57,0,0,1-.1-.064.621.621,0,0,1-.084-.084l-.036-.048a.6.6,0,0,1-.032-.052c-.008-.016-.016-.036-.024-.052a.231.231,0,0,1-.02-.056c0-.02-.012-.036-.016-.056a.568.568,0,0,1-.012-.115.3.3,0,0,1,0-.06.235.235,0,0,1,.008-.056.228.228,0,0,1,.016-.056.313.313,0,0,1,.02-.056c.008-.02.016-.036.024-.052a.365.365,0,0,1,.032-.052l.036-.048a.209.209,0,0,1,.04-.044.435.435,0,0,1,.044-.04.666.666,0,0,1,.1-.064l.052-.024a.23.23,0,0,1,.056-.02c.02,0,.036-.012.056-.016a.307.307,0,0,1,.06-.008.6.6,0,0,1,.119,0c.02,0,.04,0,.06.008a.227.227,0,0,1,.056.016c.016.008.036.012.056.02s.036.016.052.024a.363.363,0,0,1,.052.032l.048.036a.623.623,0,0,1,.084.084l.036.048a.589.589,0,0,1,.032.052c.008.016.016.036.024.052a.313.313,0,0,1,.02.056c0,.02.012.04.016.056a.312.312,0,0,1,.008.056c0,.02,0,.04,0,.06a.54.54,0,0,1-.012.115.229.229,0,0,1-.016.056.313.313,0,0,1-.02.056c-.008.02-.016.036-.024.052a.364.364,0,0,1-.032.052l-.036.048a.209.209,0,0,1-.04.044.437.437,0,0,1-.044.04l-.048.036a.589.589,0,0,1-.052.032l-.052.024a.23.23,0,0,1-.056.02c-.02,0-.04.012-.056.016a.271.271,0,0,1-.06.008A.3.3,0,0,0,186.5,187.218Z" transform="translate(-178.501 -178.621)" fill="#ea4c36"/>
</svg>
