<svg xmlns="http://www.w3.org/2000/svg" width="14" height="17.295" viewBox="0 0 14 17.295">
  <g id="person" transform="translate(-0.028)" opacity="0.6">
    <g id="Group_1" data-name="Group 1" transform="translate(2.05)">
      <path id="Path_9" data-name="Path 9" d="M17.369,9.939a4.969,4.969,0,1,1,4.969-4.969A4.967,4.967,0,0,1,17.369,9.939Zm0-8.958a3.989,3.989,0,1,0,3.989,3.989A3.984,3.984,0,0,0,17.369.981Z" transform="translate(-12.4)" fill="#393939"/>
    </g>
    <g id="Group_2" data-name="Group 2" transform="translate(6.921 8.337)">
      <path id="Path_10" data-name="Path 10" d="M42.494,59.958a1.026,1.026,0,0,1-.294-.016l.082-.981-.033.49.033-.49a8.292,8.292,0,0,0,6.048-2.632c0-.6-.1-2.746-1.782-3.416l-.033-.016-1.749-.834-.082-.131A1.319,1.319,0,0,1,44.521,51l.948.245a.124.124,0,0,0,.016.065L46.924,52c2.615,1.063,2.387,4.414,2.37,4.561l-.016.163-.114.131A9.158,9.158,0,0,1,42.494,59.958Z" transform="translate(-42.2 -51)" fill="#393939"/>
    </g>
    <g id="Group_3" data-name="Group 3" transform="translate(0.028 8.353)">
      <path id="Path_11" data-name="Path 11" d="M6.84,60.042A9.256,9.256,0,0,1,.17,56.952l-.114-.131-.016-.163c-.016-.131-.245-3.5,2.354-4.544l1.439-.687a.178.178,0,0,0,.016-.082L4.8,51.1a1.319,1.319,0,0,1-.163.932l-.082.131-1.782.85C1.1,53.683,1,55.808,1,56.429a8.08,8.08,0,0,0,6.048,2.632l.082.981Z" transform="translate(-0.028 -51.1)" fill="#393939"/>
    </g>
  </g>
</svg>
