<svg id="Layer_1" width="20" height="20" viewBox="0 0 20 20" fill="none" xmlns="http://www.w3.org/2000/svg">
<path fill-rule="evenodd" clip-rule="evenodd" d="M0.14124 9.83464C-0.536107 4.14636 4.01739 -0.641775 9.42679 0.0704746C13.1228 0.557076 16.1022 3.68129 16.5775 7.56713C16.8296 9.62748 16.3947 11.6378 15.3886 13.3257L15.2156 13.6039L18.7167 17.2817L18.8104 17.3889C19.1875 17.8704 19.1852 18.5665 18.8147 19.0507L18.7227 19.1585L18.2948 19.6084C17.8313 20.0957 17.0939 20.1282 16.6148 19.7061L16.5163 19.6087L13.0085 15.9239C11.3522 17.1088 9.33673 17.6327 7.26823 17.3522C3.57426 16.8517 0.604767 13.7199 0.14124 9.83464ZM8.36112 3.28565C5.51558 3.28565 3.19901 5.72146 3.19901 8.71348C3.19901 11.7055 5.51558 14.1413 8.36112 14.1413C11.2067 14.1413 13.5232 11.7055 13.5232 8.71348C13.5232 5.72146 11.2067 3.28565 8.36112 3.28565Z" fill="#AFB0B1"/>
</svg>
